<svg
        data-name="Layer 1"
        xmlns="http://www.w3.org/2000/svg"
        viewBox="0 0 235.88 140.94"
        fill="#f84f39"
>
    <title>Logo</title>
    <path
            d="M195,72.5V78H143V72.5h52m13-13H130V91h78V59.5Z"
            transform="translate(-7.34 -4.44)"
    />
    <path
            d="M93.62,87.9v-26H98a22.33,22.33,0,0,0,3.1-.24,9.46,9.46,0,0,0,3.1-1,5.7,5.7,0,0,0,2.3-2.27,7.82,7.82,0,0,0,.9-4V31.07q0-26.62,29.8-26.63h23.2V31.88h-15c-1.2,0-2,.3-2.3.9a3.76,3.76,0,0,0-.5,1.86V57.7a16.23,16.23,0,0,1-2,8.52,19.86,19.86,0,0,1-4.4,5.28,19.3,19.3,0,0,1-6.2,3.41,18.8,18.8,0,0,1,10.6,8.69,16.28,16.28,0,0,1,2,8.52v23.06a3.83,3.83,0,0,0,.5,1.87c.34.59,1.1.89,2.3.89h15v27.44h-23.2q-29.79,0-29.8-26.63V95.37a7.84,7.84,0,0,0-.9-4,5.82,5.82,0,0,0-2.3-2.27,9.45,9.45,0,0,0-3.1-1A21,21,0,0,0,98,87.9Zm18-14.94q7.8-.31,12.4-4.06t4.6-11V28.8q0-7.47,8.2-7.47h10.4v-3.9h-10.4q-7,0-10.2,3t-3.2,8.37V57.86a12.06,12.06,0,0,1-1.4,6.25,9.86,9.86,0,0,1-3.5,3.58,13.35,13.35,0,0,1-4.6,1.62,28.53,28.53,0,0,1-4.5.41h-2.6V80.11h2.6a28.43,28.43,0,0,1,4.5.4,13.57,13.57,0,0,1,4.6,1.63,9.76,9.76,0,0,1,3.5,3.57,12.08,12.08,0,0,1,1.4,6.25V121q0,5.35,3.2,8.36t10.2,3h10.4V128.5h-10.4q-8.19,0-8.2-7.47V92q0-7.3-4.6-11t-12.4-4.06Z"
            transform="translate(-7.34 -4.44)"
    />
    <path
            d="M238.82,87.9a21.1,21.1,0,0,0-3.1.25,9.53,9.53,0,0,0-3.1,1,5.82,5.82,0,0,0-2.3,2.27,7.84,7.84,0,0,0-.9,4v23.38q0,26.63-29.8,26.63h-23.2V117.94h15c1.2,0,2-.3,2.3-.89a3.72,3.72,0,0,0,.5-1.87V92.12a16.38,16.38,0,0,1,2-8.52,18.8,18.8,0,0,1,10.6-8.69,19.51,19.51,0,0,1-6.2-3.41,20,20,0,0,1-4.4-5.28,16.33,16.33,0,0,1-2-8.52V34.64a3.66,3.66,0,0,0-.5-1.86c-.33-.6-1.1-.9-2.3-.9h-15V4.44h23.2q29.81,0,29.8,26.63V54.45a7.82,7.82,0,0,0,.9,4,5.7,5.7,0,0,0,2.3,2.27,9.54,9.54,0,0,0,3.1,1,22.45,22.45,0,0,0,3.1.24h4.4v26Zm-13.6-11q-7.8.33-12.4,4.06t-4.6,11V121q0,7.47-8.2,7.47h-10.4v3.89H200q7,0,10.2-3c2.14-2,3.2-4.79,3.2-8.36V92a12.18,12.18,0,0,1,1.4-6.25,9.83,9.83,0,0,1,3.5-3.57,13.65,13.65,0,0,1,4.6-1.63,28.43,28.43,0,0,1,4.5-.4H230V69.72h-2.6a28.53,28.53,0,0,1-4.5-.41,13.42,13.42,0,0,1-4.6-1.62,9.94,9.94,0,0,1-3.5-3.58,12.16,12.16,0,0,1-1.4-6.25V28.8c0-3.57-1.06-6.36-3.2-8.37s-5.53-3-10.2-3h-10.4v3.9H200q8.21,0,8.2,7.47V57.86q0,7.3,4.6,11T225.22,73Z"
            transform="translate(-7.34 -4.44)"
    />
    <path
            d="M7.72,99.89a58.46,58.46,0,0,0,8.69,2.2A66.43,66.43,0,0,0,25,103.7a80.56,80.56,0,0,0,9.73.59q8.69,0,8.69-6.79c0-1.74-.88-3.5-2.64-5.3a78.24,78.24,0,0,0-6.71-6q-4.07-3.3-8.7-7.31a64.26,64.26,0,0,1-8.69-9.2A48.4,48.4,0,0,1,10,58,39.23,39.23,0,0,1,7.34,43.09,40.19,40.19,0,0,1,10.56,26.5a33,33,0,0,1,8.88-12A39.12,39.12,0,0,1,32.76,7.19a52.62,52.62,0,0,1,16.36-2.5,83.68,83.68,0,0,1,9.07.5l8.13.9,8.12,1.2v37.4c-1-.13-2.14-.26-3.4-.4-1-.13-2.14-.26-3.4-.39a36.06,36.06,0,0,0-4-.21c-.76,0-1.7,0-2.84.1a17.09,17.09,0,0,0-3.21.5A6.57,6.57,0,0,0,55,45.69a3.57,3.57,0,0,0-1.13,2.81c0,1.06.85,2.4,2.55,4s3.78,3.46,6.24,5.59,5.17,4.6,8.13,7.41a58.78,58.78,0,0,1,8.13,9.59,57.74,57.74,0,0,1,6.23,12.2,43.06,43.06,0,0,1,2.56,15.21A50.6,50.6,0,0,1,85,119a35.47,35.47,0,0,1-8.22,13.39,38.75,38.75,0,0,1-14.27,9,58.07,58.07,0,0,1-20.61,3.31,119.46,119.46,0,0,1-13.32-.7q-6.15-.7-10.87-1.71a83.92,83.92,0,0,1-10-2.4Zm15.88,24c1.76.4,3.65.74,5.67,1q2.64.4,5.57.7a58.58,58.58,0,0,0,6,.3,40.73,40.73,0,0,0,10.3-1.3,25.16,25.16,0,0,0,9-4.3,21.75,21.75,0,0,0,6.33-7.7,25.45,25.45,0,0,0,2.36-11.5,23.26,23.26,0,0,0-2.74-11,51.39,51.39,0,0,0-7-10A122.76,122.76,0,0,0,50,70.9q-4.83-4.41-9.08-8.9a54.33,54.33,0,0,1-7-9,17.63,17.63,0,0,1-2.74-9.31c0-4.79,1.45-8.5,4.35-11.1s7.56-3.9,14-3.9c1,0,2,0,3.12.1s2.11.17,3.12.3a22,22,0,0,0,3,.2v-5.2a22.19,22.19,0,0,1-2.84-.19c-.88-.14-1.86-.24-2.93-.31s-2.17-.09-3.31-.09q-10.2,0-16.82,4.9T26.24,43.69A21.21,21.21,0,0,0,29,54.19a52.48,52.48,0,0,0,7,9.6q4.25,4.71,9.07,9.11t9.07,8.89a48.84,48.84,0,0,1,7,9.3,20,20,0,0,1,2.74,10q0,9.61-6.14,14.61t-16.92,5a63.87,63.87,0,0,1-11.72-1c-1.89-.27-3.72-.61-5.48-1Z"
            transform="translate(-7.34 -4.44)"
    />
</svg>